<svg width="288" height="48" viewBox="0 0 288 48" fill="none" xmlns="http://www.w3.org/2000/svg">
<path d="M49.2898 38.9409L66.2695 12.4693H73.6437L80.0347 38.9409H72.5849L67.8578 16.024H70.8075L57.1935 38.9409H49.2898ZM56.7019 33.7979L59.7272 28.2766H72.6605L73.4925 33.7979H56.7019ZM90.9354 46.6177C88.8933 46.6177 87.0277 46.3908 85.3385 45.937C83.6494 45.5084 82.1871 44.8529 80.9518 43.9705L84.1662 38.9787C84.973 39.609 85.994 40.1132 87.2294 40.4914C88.4899 40.8948 89.7883 41.0965 91.1245 41.0965C92.9901 41.0965 94.3641 40.6931 95.2465 39.8863C96.1289 39.1048 96.7213 37.9703 97.0239 36.4828L97.6668 33.3062L99.1038 27.9741L100.238 22.1881L100.957 18.4443H107.802L104.474 35.1593C103.667 39.2182 102.104 42.1427 99.7845 43.9327C97.4903 45.7227 94.5406 46.6177 90.9354 46.6177ZM91.4648 37.8821C89.8513 37.8821 88.3639 37.5417 87.0025 36.861C85.6411 36.1551 84.5444 35.1593 83.7124 33.8735C82.9057 32.5625 82.5023 30.9868 82.5023 29.1464C82.5023 27.6085 82.7796 26.1715 83.3342 24.8353C83.9141 23.4991 84.7082 22.3268 85.7167 21.3184C86.7503 20.3099 87.9479 19.5284 89.3093 18.9737C90.6707 18.3939 92.1455 18.1039 93.7338 18.1039C95.2465 18.1039 96.5827 18.3939 97.7424 18.9737C98.9273 19.5536 99.8097 20.5116 100.39 21.8478C100.995 23.184 101.146 24.9992 100.843 27.2934C100.591 29.5372 100.049 31.4532 99.2172 33.0415C98.4105 34.6046 97.3516 35.8021 96.0406 36.6341C94.7297 37.4661 93.2044 37.8821 91.4648 37.8821ZM93.5826 32.1339C94.5406 32.1339 95.3725 31.9322 96.0785 31.5289C96.8096 31.1255 97.3768 30.5582 97.7802 29.8271C98.2088 29.0708 98.4231 28.201 98.4231 27.2178C98.4231 26.2093 98.0827 25.4026 97.402 24.7975C96.7466 24.1672 95.8137 23.8521 94.6036 23.8521C93.6456 23.8521 92.801 24.0664 92.0699 24.495C91.3388 24.8983 90.7589 25.4782 90.3303 26.2345C89.9269 26.9656 89.7253 27.8228 89.7253 28.8061C89.7253 29.8145 90.0656 30.6213 90.7463 31.2263C91.4522 31.8314 92.3976 32.1339 93.5826 32.1339ZM108.334 38.9409L112.418 18.4443H119.225L118.053 24.2681L117.372 22.6041C118.28 20.9654 119.477 19.8057 120.965 19.125C122.452 18.4443 124.192 18.1039 126.183 18.1039L124.936 24.5706C124.633 24.5202 124.356 24.495 124.104 24.495C123.851 24.4697 123.587 24.4571 123.309 24.4571C121.746 24.4571 120.461 24.8353 119.452 25.5916C118.469 26.3228 117.813 27.5455 117.486 29.2599L115.519 38.9409H108.334ZM136.225 39.2813C134.057 39.2813 132.166 38.8905 130.552 38.109C128.939 37.3274 127.691 36.2433 126.808 34.8567C125.926 33.4449 125.485 31.8062 125.485 29.9406C125.485 27.6716 126.027 25.6547 127.111 23.8899C128.195 22.0999 129.682 20.6881 131.573 19.6544C133.464 18.6208 135.632 18.1039 138.078 18.1039C140.271 18.1039 142.162 18.4947 143.75 19.2763C145.364 20.0326 146.612 21.1041 147.494 22.4907C148.376 23.8773 148.818 25.516 148.818 27.4068C148.818 29.6758 148.276 31.7053 147.192 33.4953C146.107 35.2853 144.62 36.6971 142.729 37.7308C140.838 38.7644 138.67 39.2813 136.225 39.2813ZM136.641 33.571C137.599 33.571 138.443 33.3314 139.174 32.8524C139.906 32.3482 140.473 31.6675 140.876 30.8103C141.305 29.9532 141.519 28.9447 141.519 27.785C141.519 26.6505 141.179 25.7051 140.498 24.9488C139.842 24.1924 138.897 23.8143 137.662 23.8143C136.704 23.8143 135.859 24.0538 135.128 24.5328C134.397 25.0118 133.817 25.6925 133.388 26.5749C132.985 27.432 132.783 28.4405 132.783 29.6002C132.783 30.8103 133.124 31.781 133.804 32.5121C134.485 33.218 135.431 33.571 136.641 33.571ZM164.778 39.4704C162.08 39.4704 159.723 38.9787 157.706 37.9955C155.714 37.0123 154.176 35.6509 153.092 33.9113C152.008 32.1465 151.466 30.117 151.466 27.8228C151.466 25.5286 151.87 23.4109 152.676 21.4696C153.483 19.5284 154.618 17.8518 156.08 16.44C157.542 15.003 159.282 13.8937 161.299 13.1121C163.341 12.3306 165.597 11.9398 168.068 11.9398C170.513 11.9398 172.681 12.3684 174.572 13.2256C176.463 14.0828 177.875 15.3181 178.808 16.9316L173.4 21.2427C172.795 20.2343 172.001 19.4653 171.017 18.9359C170.059 18.4065 168.912 18.1418 167.576 18.1418C166.29 18.1418 165.118 18.3687 164.059 18.8225C163.026 19.2763 162.131 19.9191 161.374 20.7511C160.618 21.5831 160.038 22.5663 159.635 23.7008C159.231 24.8101 159.03 26.0202 159.03 27.3312C159.03 28.5161 159.282 29.5624 159.786 30.47C160.315 31.3524 161.059 32.0457 162.017 32.5499C163 33.0289 164.16 33.2684 165.496 33.2684C166.681 33.2684 167.816 33.0289 168.9 32.5499C170.009 32.0709 171.03 31.2893 171.963 30.2053L176.387 34.5542C174.9 36.3442 173.186 37.6173 171.244 38.3737C169.303 39.1048 167.148 39.4704 164.778 39.4704ZM188.818 39.2813C186.625 39.2813 184.708 38.9031 183.07 38.1468C181.456 37.3652 180.196 36.2811 179.288 34.8945C178.381 33.4827 177.927 31.8314 177.927 29.9406C177.927 27.6716 178.444 25.6547 179.477 23.8899C180.511 22.0999 181.96 20.6881 183.826 19.6544C185.692 18.6208 187.86 18.1039 190.331 18.1039C192.423 18.1039 194.213 18.4821 195.701 19.2384C197.213 19.9948 198.373 21.0536 199.18 22.415C200.012 23.7512 200.428 25.3143 200.428 27.1043C200.428 27.7094 200.39 28.2892 200.314 28.8439C200.239 29.3985 200.138 29.9406 200.012 30.47H183.561L184.242 26.6883H196.684L193.696 27.785C193.898 26.8018 193.86 25.9824 193.583 25.3269C193.331 24.6462 192.889 24.1294 192.259 23.7764C191.654 23.3983 190.898 23.2092 189.99 23.2092C188.831 23.2092 187.872 23.4991 187.116 24.079C186.385 24.6588 185.83 25.453 185.452 26.4614C185.099 27.4447 184.923 28.5161 184.923 29.6758C184.923 31.0877 185.314 32.1339 186.095 32.8146C186.877 33.4701 188.049 33.7979 189.612 33.7979C190.52 33.7979 191.402 33.6592 192.259 33.3819C193.142 33.0793 193.911 32.6634 194.566 32.1339L197.554 36.6341C196.268 37.5921 194.869 38.2728 193.356 38.6762C191.868 39.0796 190.356 39.2813 188.818 39.2813ZM218.266 18.1039C220.005 18.1039 221.48 18.4695 222.69 19.2006C223.9 19.9065 224.757 20.9654 225.262 22.3772C225.791 23.7638 225.841 25.5034 225.413 27.5959L223.144 38.9409H215.959L218.076 28.2766C218.354 26.9656 218.266 25.9572 217.812 25.2513C217.383 24.5454 216.576 24.1924 215.391 24.1924C214.181 24.1924 213.16 24.5706 212.328 25.3269C211.496 26.0833 210.917 27.243 210.589 28.8061L208.547 38.9409H201.362L205.446 18.4443H212.253L211.08 24.1924L210.173 22.5285C211.156 20.9906 212.366 19.8687 213.803 19.1628C215.265 18.4569 216.753 18.1039 218.266 18.1039ZM236.769 39.2813C235.181 39.2813 233.819 38.9787 232.685 38.3737C231.55 37.7434 230.743 36.8358 230.264 35.6509C229.785 34.4407 229.71 33.0037 230.037 31.3398L233.517 13.8685H240.702L237.223 31.302C237.097 32.0835 237.185 32.6886 237.487 33.1172C237.79 33.5205 238.307 33.7222 239.038 33.7222C239.416 33.7222 239.782 33.6718 240.135 33.571C240.487 33.4701 240.84 33.3188 241.193 33.1172L242.101 38.0711C241.345 38.4997 240.5 38.8023 239.567 38.9787C238.66 39.1804 237.727 39.2813 236.769 39.2813ZM228.374 24.5706L229.47 19.2006H244.294L243.235 24.5706H228.374ZM255.588 39.2813C253.395 39.2813 251.479 38.9031 249.84 38.1468C248.226 37.3652 246.966 36.2811 246.058 34.8945C245.151 33.4827 244.697 31.8314 244.697 29.9406C244.697 27.6716 245.214 25.6547 246.247 23.8899C247.281 22.0999 248.731 20.6881 250.596 19.6544C252.462 18.6208 254.63 18.1039 257.101 18.1039C259.193 18.1039 260.983 18.4821 262.471 19.2384C263.983 19.9948 265.143 21.0536 265.95 22.415C266.782 23.7512 267.198 25.3143 267.198 27.1043C267.198 27.7094 267.16 28.2892 267.084 28.8439C267.009 29.3985 266.908 29.9406 266.782 30.47H250.331L251.012 26.6883H263.454L260.466 27.785C260.668 26.8018 260.63 25.9824 260.353 25.3269C260.101 24.6462 259.66 24.1294 259.029 23.7764C258.424 23.3983 257.668 23.2092 256.76 23.2092C255.601 23.2092 254.643 23.4991 253.886 24.079C253.155 24.6588 252.6 25.453 252.222 26.4614C251.869 27.4447 251.693 28.5161 251.693 29.6758C251.693 31.0877 252.084 32.1339 252.865 32.8146C253.647 33.4701 254.819 33.7979 256.382 33.7979C257.29 33.7979 258.172 33.6592 259.029 33.3819C259.912 33.0793 260.681 32.6634 261.336 32.1339L264.324 36.6341C263.038 37.5921 261.639 38.2728 260.126 38.6762C258.638 39.0796 257.126 39.2813 255.588 39.2813ZM268.132 38.9409L272.216 18.4443H279.023L277.85 24.2681L277.17 22.6041C278.077 20.9654 279.275 19.8057 280.762 19.125C282.25 18.4443 283.989 18.1039 285.981 18.1039L284.733 24.5706C284.431 24.5202 284.153 24.495 283.901 24.495C283.649 24.4697 283.384 24.4571 283.107 24.4571C281.544 24.4571 280.258 24.8353 279.25 25.5916C278.266 26.3228 277.611 27.5455 277.283 29.2599L275.317 38.9409H268.132Z" fill="white"/>
<path d="M87.4595 7.79369H92.1054L91.8259 9.21807H87.18L87.4595 7.79369ZM86.7939 11.7873H92.0655L91.7726 13.2383H84.7838L86.6475 3.91991H93.4499L93.1571 5.37091H88.0719L86.7939 11.7873ZM93.535 10.2298L93.8012 8.84533H97.462L97.1825 10.2298H93.535ZM96.9729 13.2383L103.03 3.91991H104.747L107.063 13.2383H105.346L103.403 4.81181H104.095L98.8233 13.2383H96.9729ZM99.3424 11.0817L100.075 9.72392H105.093L105.32 11.0817H99.3424ZM109.951 13.2383L108.726 3.91991H110.443L111.535 12.3331H110.643L115.183 3.91991H116.793L117.872 12.3331H117.033L121.532 3.91991H123.25L118.311 13.2383H116.46L115.422 5.65046H115.941L111.801 13.2383H109.951ZM121.179 13.2383L127.236 3.91991H128.953L131.269 13.2383H129.552L127.609 4.81181H128.301L123.029 13.2383H121.179ZM123.548 11.0817L124.281 9.72392H129.299L129.525 11.0817H123.548ZM132.468 13.2383L134.331 3.91991H137.952C139.079 3.91991 139.949 4.1684 140.561 4.66538C141.183 5.15348 141.493 5.84127 141.493 6.72873C141.493 7.5097 141.311 8.18417 140.947 8.75215C140.592 9.31125 140.082 9.74611 139.417 10.0567C138.751 10.3585 137.961 10.5093 137.047 10.5093H134.012L134.904 9.72392L134.212 13.2383H132.468ZM138.591 13.2383L136.688 9.85704H138.525L140.428 13.2383H138.591ZM134.864 9.9236L134.278 9.08495H137.1C137.943 9.08495 138.596 8.89858 139.057 8.52585C139.519 8.15311 139.749 7.60732 139.749 6.88847C139.749 6.38262 139.576 6.00545 139.23 5.75696C138.893 5.50847 138.405 5.38422 137.766 5.38422H135.05L135.955 4.51895L134.864 9.9236ZM144.88 7.79369H149.526L149.247 9.21807H144.601L144.88 7.79369ZM144.215 11.7873H149.486L149.193 13.2383H142.205L144.068 3.91991H150.871L150.578 5.37091H145.493L144.215 11.7873Z" fill="#2196F3"/>
<path fill-rule="evenodd" clip-rule="evenodd" d="M43.8987 24.8903C43.8987 36.8548 34.1995 46.5539 22.235 46.5539C10.2705 46.5539 0.571289 36.8548 0.571289 24.8903C0.571289 12.9257 10.2705 3.22656 22.235 3.22656C34.1995 3.22656 43.8987 12.9257 43.8987 24.8903ZM27.5307 37.8885C28.8803 37.8885 30.561 40.274 29.3283 40.8236C27.1613 41.7898 24.7609 42.3269 22.235 42.3269C12.605 42.3269 4.79835 34.5202 4.79835 24.8903C4.79835 15.2603 12.605 7.45362 22.235 7.45362C24.7609 7.45362 27.1614 7.99072 29.3284 8.95695C30.5611 9.50655 28.8803 11.8921 27.5307 11.8921C20.352 11.8921 14.5325 17.7116 14.5325 24.8903C14.5325 32.069 20.352 37.8885 27.5307 37.8885ZM38.4154 24.8903C38.4154 30.9018 33.5421 35.775 27.5307 35.775C21.5192 35.775 16.646 30.9018 16.646 24.8903C16.646 18.8789 21.5192 14.0056 27.5307 14.0056C33.5421 14.0056 38.4154 18.8789 38.4154 24.8903Z" fill="url(#paint0_linear_3527_61058)"/>
<defs>
<linearGradient id="paint0_linear_3527_61058" x1="43.8987" y1="3.22656" x2="0.571289" y2="46.5539" gradientUnits="userSpaceOnUse">
<stop stop-color="#185FBE"/>
<stop offset="1" stop-color="#00A5F7"/>
</linearGradient>
</defs>
</svg>
